<svg
  xmlns="http://www.w3.org/2000/svg"
  width="136"
  height="36"
  viewBox="0 0 252 65"
  fill="none"
>
  <path
    d="M52.7094 33.7432L60.2934 21.3294L59.9574 21.0441L52.1973 33.7432L53.3585 34.7208L53.5314 34.4355L52.7094 33.7432Z"
    fill="#36A9CA"
  />
  <path
    d="M53.4205 35.0862L51.8809 33.7945L59.8954 20.6755L60.613 21.2781L53.0258 33.6951L53.8511 34.3843L53.4205 35.0862Z"
    fill="#027FA3"
  />
  <path
    d="M55.2667 38.0574L67.3651 24.1051L67.114 23.807L54.7578 38.0574L55.7592 39.2529L56.0169 38.9517L55.2667 38.0574Z"
    fill="#36A9CA"
  />
  <path
    d="M55.7561 39.628L54.4382 38.0542L67.1173 23.432L67.6849 24.1083L55.5864 38.0606L56.3367 38.9549L55.7561 39.628Z"
    fill="#027FA3"
  />
  <path
    d="M38.585 21.916L39.469 21.4961L39.3973 21.2878L38.0762 21.916L43.4551 37.519L43.8954 37.3107L38.585 21.916Z"
    fill="#36A9CA"
  />
  <path
    d="M43.3117 37.8555L37.7729 21.791L39.5409 20.9544L39.7725 21.6211L38.8885 22.041L44.1957 37.4356L43.3117 37.8555Z"
    fill="#027FA3"
  />
  <path
    d="M33.1737 23.3103L34.0479 22.8167L33.95 22.5795L32.6648 23.3103L40.0628 41.2082L40.4771 40.9742L33.1737 23.3103Z"
    fill="#36A9CA"
  />
  <path
    d="M39.9421 41.5575L32.3582 23.2077L34.0707 22.2333L34.3545 22.9192L33.4835 23.4128L40.7837 41.0767L39.9421 41.5575Z"
    fill="#027FA3"
  />
  <path
    d="M29.4191 26.4289L30.3031 26.0058L30.2281 25.7975L28.907 26.4289L34.8111 43.3845L35.2514 43.1762L29.4191 26.4289Z"
    fill="#36A9CA"
  />
  <path
    d="M34.6709 43.7211L28.6038 26.3039L30.3717 25.4609L30.6066 26.1276L29.7193 26.5507L35.5517 43.3012L34.6709 43.7211Z"
    fill="#027FA3"
  />
  <path
    d="M26.2423 29.9995L27.1426 29.6886L27.1034 29.5251L25.7334 29.9995L28.8844 42.5703L29.3541 42.4069L26.2423 29.9995Z"
    fill="#36A9CA"
  />
  <path
    d="M28.7114 42.8877L25.4495 29.8456L27.2859 29.2046L27.4458 29.8456L26.5455 30.1662L29.6541 42.5768L28.7114 42.8877ZM26.0236 30.1533L29.0572 42.2562L26.0268 30.1565L26.0236 30.1533Z"
    fill="#027FA3"
  />
  <path
    d="M8.70914 38.7369L17.3696 28.3744L17.1119 28.0764L8.19702 38.7369L9.218 39.91L9.46917 39.6119L8.70914 38.7369Z"
    fill="#36A9CA"
  />
  <path
    d="M9.22135 40.285L7.87744 38.7401L17.1054 27.7014L17.6926 28.3712L9.0289 38.7337L9.78893 39.6087L9.22135 40.285Z"
    fill="#027FA3"
  />
  <path
    d="M4.24055 35.4067L16.0259 23.8743L15.8171 23.5795L3.73169 35.4067L4.64503 36.6888L4.94513 36.3971L4.24055 35.4067Z"
    fill="#36A9CA"
  />
  <path
    d="M4.61225 37.0638L3.41187 35.3779L15.8496 23.2076L16.3454 23.9032L4.56006 35.4323L5.26464 36.4228L4.61225 37.0638Z"
    fill="#027FA3"
  />
  <path
    d="M40.6729 42.8461C42.5061 41.6088 44.0131 39.9325 45.3635 38.0863C46.4171 36.6536 47.3729 35.1151 48.2993 33.599C49.1963 32.1567 50.077 30.74 51.0099 29.4547C52.7909 26.9995 54.7644 25.0122 57.4131 24.1949C63.4313 22.3359 69.9323 27.9065 69.9976 27.961L71.7036 25.2751L71.6514 25.2302C70.9207 24.6052 63.8228 18.7556 56.6857 20.9544C53.7956 21.8455 51.6134 23.7622 49.7508 26.0828C48.484 27.7235 47.3164 29.4359 46.254 31.2111C46.166 31.3522 46.0779 31.4932 45.9931 31.6342C44.9558 33.2977 43.9479 34.9164 42.8584 36.3491C41.8581 37.737 40.6327 38.954 39.2311 39.9517C36.5433 41.7691 33.3401 41.8749 30.3163 40.8845L30.0129 40.7787C29.8139 40.7082 29.615 40.6312 29.416 40.5511C29.217 40.471 29.018 40.3845 28.8223 40.2947C28.329 40.0656 27.8478 39.812 27.3805 39.5351C25.0909 38.1702 23.1627 36.292 21.7537 34.0541C19.1442 29.8521 17.7677 24.5923 16.8608 20.4833L14.8058 21.1115L14.0947 21.3262L14.1143 21.4192C14.1567 21.6019 14.1958 21.7878 14.2415 21.9769C14.2872 22.166 14.3361 22.4 14.3883 22.6179C15.3669 26.7847 16.8282 31.8137 19.4475 36.0254C23.8283 43.0672 33.6173 47.6026 40.6729 42.8461Z"
    fill="#027FA3"
  />
  <path
    d="M40.6469 23.8391C48.7136 27.1565 55.2342 41.9967 55.3027 42.1569L56.7673 41.2851L57.847 40.6441C57.5208 39.862 49.4116 21.4128 38.8985 19.9384C32.9193 19.0922 28.4146 24.7654 24.0632 30.2496C20.6154 34.5958 17.3567 38.6985 13.9513 38.753C6.36402 38.8748 2.63238 31.5092 2.47907 31.1983L0.433837 32.5701L0 32.8618C0.146787 33.1599 2.93573 38.7241 8.56908 41.0736C10.2837 41.7871 12.132 42.1376 13.9937 42.1024C18.606 42.0287 22.4388 37.2017 26.1411 32.5349C30.0097 27.6597 34.0088 22.6211 38.5364 23.2622C39.2622 23.3647 39.9715 23.5586 40.6469 23.8391Z"
    fill="#027FA3"
  />
  <path
    d="M26.1575 32.5317C27.1915 31.2304 28.2353 29.9162 29.2955 28.7047C27.9189 30.1791 26.5718 31.8746 25.2442 33.5477C24.2264 34.8298 23.2022 36.1119 22.1519 37.3235C23.5219 35.8555 24.8495 34.1824 26.1575 32.5317Z"
    fill="#36A9CA"
  />
  <path
    d="M3.67599 30.6342C3.97631 31.2124 4.32089 31.7675 4.70676 32.2945L5.94303 31.0861C6.22241 24.5411 8.7165 18.275 13.0301 13.2804C17.3438 8.28583 23.2302 4.84853 29.7569 3.51313C36.2835 2.17773 43.077 3.0206 49.0609 5.9082C55.0449 8.79579 59.8771 13.563 62.7919 19.4544C64.0735 19.7122 65.3242 20.1011 66.5235 20.6147C63.8348 13.8159 58.8849 8.11056 52.4783 4.42627C46.0718 0.741986 38.5853 -0.704663 31.236 0.321518C23.8867 1.3477 17.1068 4.78636 11.9983 10.0785C6.8899 15.3706 3.75336 22.205 3.09863 29.4707L3.67599 30.6342Z"
    fill="#36A9CA"
  />
  <path
    d="M66.6966 27.2334L65.5647 28.5379C66.5229 35.7571 64.7236 43.069 60.5146 49.0605C56.3056 55.052 49.9857 59.2977 42.7764 60.977C35.5671 62.6563 27.9801 61.65 21.4819 58.1527C14.9837 54.6553 10.0356 48.9151 7.5938 42.0415C6.22932 41.4136 4.95759 40.6071 3.81323 39.644C5.72012 47.6988 10.6963 54.7292 17.718 59.2885C24.7396 63.8478 33.2726 65.5893 41.5612 64.1546C49.8498 62.7199 57.2636 58.2182 62.2771 51.5757C67.2906 44.9332 69.5225 36.6552 68.5135 28.445C67.9303 28.0096 67.3238 27.6052 66.6966 27.2334Z"
    fill="#36A9CA"
  />
  <path
    d="M92.6974 41.5416C91.9312 42.2996 91.0147 42.895 90.0047 43.2909C88.9948 43.6868 87.9128 43.8746 86.826 43.8429C81.359 43.8429 78.6255 41.1569 78.6255 35.785V28.8745C78.6255 23.5026 81.359 20.8166 86.826 20.8166C87.9128 20.7849 88.9948 20.9728 90.0047 21.3686C91.0147 21.7645 91.9312 22.3599 92.6974 23.118L93.402 20.8166H97.3848V43.8429C97.3848 49.9841 94.261 53.0547 88.0133 53.0547H80.9806V48.4488H88.0133C91.1361 48.4488 92.6974 46.9135 92.6974 43.8429V41.5416ZM86.826 25.4225C84.4839 25.4225 83.3129 26.5732 83.3129 28.8745V35.785C83.3129 38.0863 84.4839 39.237 86.826 39.237C89.168 39.237 91.1252 38.8534 92.6974 38.0863V26.5604C91.1339 25.8018 89.1811 25.4225 86.839 25.4225H86.826Z"
    fill="#027FA3"
  />
  <path
    d="M104.744 34.1727V35.7753C104.744 38.0767 105.915 39.2274 108.257 39.2274H117.632V43.8333H108.257C102.79 43.8333 100.056 41.1473 100.056 35.7753V28.8745C100.056 23.5026 102.79 20.8166 108.257 20.8166H110.602C116.069 20.8166 118.803 23.5026 118.803 28.8745V34.1727H104.744ZM104.744 30.4867H114.119V28.8841C114.119 26.5828 112.946 25.4321 110.602 25.4321H108.257C105.915 25.4321 104.744 26.5828 104.744 28.8841V30.4867Z"
    fill="#027FA3"
  />
  <path
    d="M129.678 35.785C129.678 38.0863 130.849 39.237 133.191 39.237H135.536V43.8429H133.191C127.724 43.8429 124.99 41.1569 124.99 35.785V25.4225H121.474V20.8166H124.99V13.9093L129.678 11.6048V20.8166H135.549V25.4225H129.678V35.785Z"
    fill="#027FA3"
  />
  <path
    d="M155.033 11.6048V16.2107H146.829V43.8429H142.145V16.2107H133.941V11.6048H155.033Z"
    fill="#36A9CA"
  />
  <path
    d="M158.125 34.1727V35.7753C158.125 38.0767 159.297 39.2274 161.641 39.2274H171.013V43.8333H161.641C156.172 43.8333 153.438 41.1473 153.438 35.7753V28.8745C153.438 23.5026 156.172 20.8166 161.641 20.8166H163.974C169.441 20.8166 172.175 23.5026 172.178 28.8745V34.1727H158.125ZM158.125 30.4867H167.5V28.8841C167.5 26.5828 166.328 25.4321 163.984 25.4321H161.641C159.295 25.4321 158.123 26.5828 158.125 28.8841V30.4867Z"
    fill="#36A9CA"
  />
  <path
    d="M174.859 43.8429V39.237H185.401C186.963 39.237 187.745 38.4699 187.747 36.9356C187.747 35.2475 186.965 34.4035 185.401 34.4035H181.888C177.202 34.4035 174.859 32.177 174.859 27.7238C174.859 23.1169 177.202 20.8145 181.888 20.8166H192.434V25.4225H181.888C180.327 25.4225 179.545 26.1896 179.543 27.7238C179.543 29.1064 180.325 29.7976 181.888 29.7976H185.401C190.088 29.7976 192.432 32.177 192.434 36.9356C192.434 41.5426 190.09 43.845 185.401 43.8429H174.859Z"
    fill="#36A9CA"
  />
  <path
    d="M203.306 35.785C203.306 38.0863 204.478 39.237 206.823 39.237H209.165V43.8429H206.823C201.353 43.8429 198.619 41.1569 198.619 35.785V25.4225H195.106V20.8166H198.619V13.9093L203.306 11.6048V20.8166H209.178V25.4225H203.306V35.785Z"
    fill="#36A9CA"
  />
  <path
    d="M216.523 34.1727V35.7753C216.523 38.0767 217.694 39.2274 220.036 39.2274H229.411V43.8333H220.036C214.569 43.8333 211.836 41.1473 211.836 35.7753V28.8745C211.836 23.5026 214.569 20.8166 220.036 20.8166H222.382C227.849 20.8166 230.582 23.5026 230.582 28.8745V34.1727H216.523ZM216.523 30.4867H225.895V28.8841C225.895 26.5828 224.724 25.4321 222.382 25.4321H220.036C217.694 25.4321 216.523 26.5828 216.523 28.8841V30.4867Z"
    fill="#36A9CA"
  />
  <path
    d="M247.316 11.6048H252V43.8429H248.017L247.316 41.5415C246.549 42.2991 245.633 42.8942 244.623 43.2901C243.613 43.6859 242.531 43.874 241.445 43.8429C235.978 43.8429 233.244 41.1569 233.244 35.785V28.8745C233.244 23.5026 235.978 20.8166 241.445 20.8166C242.531 20.7854 243.613 20.9736 244.623 21.3694C245.633 21.7652 246.549 22.3603 247.316 23.1179V11.6048ZM247.316 38.0863V26.5603C245.755 25.7932 243.798 25.4097 241.445 25.4097C239.092 25.4097 237.921 26.5603 237.932 28.8617V35.7721C237.932 38.0735 239.103 39.2242 241.445 39.2242C243.787 39.2242 245.744 38.8491 247.316 38.0991V38.0863Z"
    fill="#36A9CA"
  />
</svg>
