<svg xmlns="http://www.w3.org/2000/svg" viewBox="0 0 514.8 117.6"><defs><style>.cls-1{isolation:isolate;}.cls-2{fill:#fff481;}.cls-2,.cls-4{fill-rule:evenodd;}.cls-3,.cls-4{fill:#182983;}</style></defs><title>medisera-logo</title><g id="Rectangle_11" data-name="Rectangle 11" class="cls-1"><g id="Polygon_1_copy-2" data-name="Polygon 1 copy"><polygon class="cls-2" points="157.1 0 104.4 0 104.4 0 39.85 0 0 65.28 14.02 116.88 66.72 116.88 66.72 116.88 131.27 116.88 171.12 51.6 157.1 0"/></g><g id="Ellipse_3-2" data-name="Ellipse 3"><circle class="cls-3" cx="61.38" cy="30.01" r="6.79"/></g><g id="Rectangle_12_copy_2-2" data-name="Rectangle 12 copy 2"><polygon class="cls-4" points="98.4 89.52 90.85 80.24 51.77 80.24 51.77 34.65 42.48 27.12 42.48 83.86 17.28 102.24 17.3 113.54 50.45 89.52 98.4 89.52"/></g><g id="Rectangle_12_copy_3-2" data-name="Rectangle 12 copy 3"><polygon class="cls-4" points="152.4 12.74 152.38 1.44 119.24 25.45 71.28 25.45 78.84 34.73 117.92 34.73 117.92 80.3 127.2 87.84 127.2 31.12 152.4 12.74"/></g><g id="Ellipse_3_copy-2" data-name="Ellipse 3 copy"><circle class="cls-3" cx="108.32" cy="84.88" r="6.79"/></g><g id="Rectangle_11-2" data-name="Rectangle 11"><path class="cls-4" d="M211.3,62.93,192,98.15l-4.93-35.22h-12L141.6,116.51h12.08l25-40.07,5.91,40h8.7l21.8-40.06,1.3,40.13h10l-1.53-53.57ZM246.45,94.2h17.38l.2-9H246.45V71.93h22.86l.17-9H235.6l.69,9v44.58H270v-9H246.45Zm69.18-15.54q-1.35-8-6.56-11.88t-14.36-3.85H276.19l.69,9v44.58h17.86a31.39,31.39,0,0,0,9.87-1.48,14.82,14.82,0,0,0,7.27-5.06,17.2,17.2,0,0,0,3.56-8,57.53,57.53,0,0,0,1-10.94q0-4.52-.17-7.34A41.38,41.38,0,0,0,315.63,78.66Zm-9.09,12.19a45.91,45.91,0,0,1-.35,6,17.21,17.21,0,0,1-1.14,4.46q-2.67,6.23-10.23,6.23H287V71.93H295a11.56,11.56,0,0,1,7.54,2.59q3.17,2.59,3.8,8.16a61.5,61.5,0,0,1,.24,6.15Zm18.55-18.92v44.58h10.13V62.93H324.4Zm47.63,15.92A55.8,55.8,0,0,0,365.41,85q-1-.31-3.47-1a52.91,52.91,0,0,1-5.38-1.71,7.76,7.76,0,0,1-3-2,4.87,4.87,0,0,1-1.13-3.37,5.18,5.18,0,0,1,2.15-4.3,10,10,0,0,1,6.17-1.65,28.94,28.94,0,0,1,6.75,1,57.4,57.4,0,0,1,8.59,2.94l.94-8.76A44.76,44.76,0,0,0,368.74,63a31,31,0,0,0-7.63-1.11,25.11,25.11,0,0,0-9.78,1.71A14.31,14.31,0,0,0,345,68.46a14.8,14.8,0,0,0-2.64,7.24,24.21,24.21,0,0,0-.17,2.61q0,7,4.23,10.63a25,25,0,0,0,10.82,5.22q4.4,1,6.68,1.73a10.36,10.36,0,0,1,3.87,2.16,5,5,0,0,1,1.6,3.89,4.39,4.39,0,0,1-2.31,4,13.83,13.83,0,0,1-5.29,1.79,33.22,33.22,0,0,1-5.52.33q-5.48-.82-14.22-4.87l-.94,9.07,1.8.86q2.67,1.28,4.86,2.18a33.87,33.87,0,0,0,5.26,1.6,29.17,29.17,0,0,0,6.5.7,27.12,27.12,0,0,0,10.93-2,15.35,15.35,0,0,0,7-5.76,16,16,0,0,0,2.41-8.86q0-5.37-2.19-8.55A13.46,13.46,0,0,0,372.73,87.85Zm24.69,6.35H414.8l-.09-9H397.42V71.93h22.86l.17-9H386.56l.69,9v44.58H421v-9H397.42Zm64.43-3.89q2.77-4.4,2.78-11.37,0-8.37-4.51-12.19t-12.87-3.82h-20l.66,9v44.58H438V97l6.42,0,11.79,19.64H467L454.61,96A13.47,13.47,0,0,0,461.85,90.3Zm-8.59-5.24a6,6,0,0,1-3.43,2.36A22.24,22.24,0,0,1,444,88h-6V71.93h6a19.58,19.58,0,0,1,5.83.72,6.22,6.22,0,0,1,3.43,2.51,9,9,0,0,1,1.18,5A8.61,8.61,0,0,1,453.26,85.07ZM511,108.29,495.13,62.93h-9.05l-18.39,53.61h10.09l3-8.81,19.69-.1,3.11,8.91h11.2Zm-27.16-9.42,5.76-16.7,1-5.22h.1l1,5.22,5.86,16.66Z"/></g></g></svg>