<?xml version="1.0" encoding="utf-8"?>
<!-- Generator: Adobe Illustrator 26.0.2, SVG Export Plug-In . SVG Version: 6.00 Build 0)  -->
<svg version="1.1" id="Layer_1" xmlns="http://www.w3.org/2000/svg" xmlns:xlink="http://www.w3.org/1999/xlink" x="0px" y="0px"
	 viewBox="0 0 1353 269" style="enable-background:new 0 0 1353 269;" xml:space="preserve">
<style type="text/css">
	.st0{fill:#580EAA;}
</style>
<g>
	<g>
		<g>
			<g>
				<path class="st0" d="M1254.9,99.23c-3.05-1.9-6.64-2.85-10.77-2.85c-4.55,0-8.47,1.12-11.78,3.36
					c-3.31,2.24-5.85,5.15-7.62,8.73c-1.52,3.07-2.35,6.33-2.57,9.77l42.29,0c0-4.19-0.83-7.93-2.49-11.23
					C1260.31,103.73,1257.95,101.13,1254.9,99.23z"/>
				<g>
					<path class="st0" d="M1325.74,68.05c-4.49-7.4-2.19-42.56-68.7-56.22c-66.51-13.66-80.09-5.42-93.4,6.03
						c-13.31,11.45-37.98,26.42-50.32,33.9c-12.34,7.48-17.64,37.7-15.61,46.6c2.02,8.9,2,48.98,2.27,59.38
						c0.61,23.26,25.45,41.95,44.91,74.03s114.36,4.89,137.39-8.36s29.9-27.97,37.6-37.04c11.81-13.92,23.01-51.09,24.96-59.02
						S1330.24,75.46,1325.74,68.05z M1141.66,157.82c-0.79,1.32-1.84,2.38-3.15,3.17c-1.31,0.79-2.77,1.19-4.38,1.19
						c-2.39,0-4.44-0.85-6.15-2.56c-1.71-1.71-2.56-3.76-2.56-6.15c0-2.39,0.85-4.43,2.56-6.14c1.71-1.71,3.76-2.56,6.15-2.56
						c2.38,0,4.43,0.86,6.14,2.56c1.71,1.71,2.56,3.76,2.56,6.14C1142.85,155.05,1142.45,156.5,1141.66,157.82z M1203.48,152.11
						c-2.43,3.36-5.83,6-10.18,7.94c-4.36,1.94-9.42,2.9-15.19,2.9c-7.58,0-13.85-1.65-18.82-4.94c-4.97-3.29-8.11-8.1-9.43-14.42
						l10.84-2.71c1.03,4,2.99,7,5.88,9c2.89,2,6.67,3,11.35,3c5.32,0,9.55-1.14,12.7-3.41c3.14-2.27,4.72-5.01,4.72-8.2
						c0-2.58-0.9-4.75-2.71-6.51c-1.81-1.76-4.58-3.07-8.32-3.94l-12.39-2.9c-6.81-1.61-11.8-4.12-14.97-7.52
						c-3.18-3.4-4.77-7.67-4.77-12.8c0-4.19,1.19-7.9,3.56-11.13c2.37-3.22,5.61-5.76,9.73-7.6c4.11-1.84,8.78-2.76,14.01-2.76
						c7.35,0,13.14,1.61,17.35,4.84c4.21,3.22,7.2,7.48,8.98,12.77l-10.26,2.9c-0.64-1.71-1.59-3.38-2.83-5.01
						c-1.24-1.63-2.93-2.98-5.06-4.04c-2.13-1.06-4.85-1.6-8.18-1.6c-4.55,0-8.33,1.04-11.35,3.12c-3.01,2.08-4.52,4.72-4.52,7.91
						c0,2.84,1.03,5.08,3.1,6.73c2.07,1.65,5.29,3.02,9.68,4.11l11.03,2.71c6.64,1.61,11.6,4.07,14.85,7.38
						c3.26,3.31,4.89,7.56,4.89,12.75C1207.14,144.95,1205.92,148.76,1203.48,152.11z M1276.07,128.11l-53.93,0
						c0.17,4.93,1.09,9.19,2.86,12.7c1.95,3.89,4.67,6.84,8.15,8.85c3.48,2.02,7.53,3.02,12.14,3.02c3,0,5.72-0.43,8.15-1.28
						c2.43-0.85,4.54-2.14,6.31-3.87c1.77-1.72,3.14-3.88,4.11-6.46l11.03,3.1c-1.16,3.74-3.11,7.02-5.85,9.85
						c-2.74,2.82-6.13,5.02-10.16,6.58c-4.03,1.56-8.56,2.35-13.6,2.35c-7.16,0-13.33-1.59-18.51-4.77
						c-5.18-3.18-9.16-7.63-11.95-13.35c-2.79-5.73-4.19-12.39-4.19-20.01s1.39-14.33,4.19-20.15c2.79-5.82,6.69-10.37,11.71-13.64
						c5.01-3.27,10.88-4.91,17.59-4.91c3.87,0,7.69,0.64,11.47,1.94c3.77,1.29,7.21,3.38,10.31,6.27c3.1,2.89,5.56,6.7,7.4,11.44
						c1.84,4.74,2.76,10.58,2.76,17.52V128.11z"/>
				</g>
			</g>
		</g>
		<g>
			<polygon class="st0" points="88.24,62.66 13.04,62.66 13.04,75.29 43.31,75.29 43.31,159.84 57.92,159.84 57.92,75.29 
				88.24,75.29 			"/>
			<path class="st0" d="M139.11,94.45c-3.07-2.91-6.53-5.05-10.39-6.41c-3.86-1.36-7.85-2.04-11.96-2.04
				c-6.77,0-12.68,1.6-17.72,4.79C94,94,90.08,98.44,87.28,104.13c-2.8,5.69-4.2,12.27-4.2,19.74c0,7.56,1.4,14.15,4.2,19.76
				c2.8,5.62,6.79,9.96,11.96,13.05c5.17,3.08,11.35,4.63,18.53,4.63c5.31,0,10.05-0.81,14.21-2.44c4.16-1.63,7.62-3.92,10.39-6.88
				c2.77-2.96,4.69-6.41,5.76-10.37l-13.43-2.42c-0.85,2.28-2.09,4.19-3.7,5.74c-1.61,1.55-3.53,2.71-5.74,3.49
				c-2.21,0.77-4.67,1.16-7.35,1.16c-4.14,0-7.77-0.89-10.87-2.68c-3.1-1.79-5.51-4.39-7.23-7.8c-1.6-3.17-2.43-7-2.54-11.44
				l51.77,0v-5.03c0-6.61-0.88-12.23-2.66-16.87C144.6,101.14,142.18,97.37,139.11,94.45z M97.29,117.04
				c0.17-3.13,0.92-6.07,2.32-8.8c1.6-3.11,3.87-5.65,6.83-7.59c2.96-1.94,6.43-2.92,10.42-2.92c3.67,0,6.87,0.84,9.61,2.51
				c2.74,1.68,4.86,3.96,6.38,6.86s2.28,6.21,2.28,9.94L97.29,117.04z"/>
			<path class="st0" d="M194.26,119.03l-11.58-2.66c-4.02-0.95-6.93-2.17-8.73-3.65c-1.8-1.49-2.7-3.45-2.7-5.88
				c0-2.81,1.34-5.12,4.03-6.9c2.69-1.79,6.04-2.68,10.06-2.68c2.94,0,5.39,0.47,7.35,1.42c1.96,0.95,3.52,2.17,4.67,3.65
				c1.15,1.49,2,3.05,2.54,4.7l12.86-2.28c-1.46-5.69-4.45-10.24-8.97-13.64c-4.52-3.4-10.72-5.1-18.6-5.1
				c-5.47,0-10.33,0.91-14.57,2.73c-4.24,1.82-7.56,4.34-9.96,7.57c-2.4,3.23-3.61,6.99-3.61,11.29c0,5.19,1.62,9.47,4.86,12.86
				c3.24,3.39,8.26,5.85,15.06,7.4l12.34,2.7c3.48,0.79,6.07,1.96,7.76,3.51s2.54,3.46,2.54,5.74c0,2.82-1.39,5.2-4.18,7.14
				c-2.78,1.94-6.5,2.92-11.15,2.92c-4.27,0-7.73-0.91-10.39-2.73c-2.66-1.82-4.41-4.52-5.27-8.09l-13.71,2.09
				c1.17,6.45,4.33,11.43,9.49,14.92c5.16,3.5,11.82,5.24,19.98,5.24c5.88,0,11.06-0.97,15.54-2.89c4.48-1.93,7.97-4.6,10.49-7.99
				c2.51-3.4,3.77-7.28,3.77-11.65c0-5.16-1.65-9.35-4.94-12.57C205.96,122.97,200.96,120.58,194.26,119.03z"/>
			<path class="st0" d="M253.86,147.93c-0.85,0.16-1.85,0.24-2.99,0.24c-1.55,0-2.98-0.24-4.29-0.73c-1.31-0.49-2.38-1.42-3.2-2.8
				c-0.82-1.37-1.23-3.44-1.23-6.19l0-40.09h14.95V86.96h-14.95l0-17.46h-14.19l0,17.46h-10.68l0,11.39h10.68l0,43.04
				c0,4.4,1,8.05,2.99,10.96s4.6,5.06,7.83,6.45c3.23,1.39,6.71,2.05,10.44,1.99c2.28-0.03,4.18-0.21,5.69-0.55
				c1.52-0.33,2.69-0.66,3.51-0.97l-2.56-11.72C255.38,147.65,254.72,147.77,253.86,147.93z"/>
			<path class="st0" d="M342.65,86.01c-5.25,0-9.77,1.16-13.57,3.49c-3.8,2.33-6.57,5.43-8.3,9.32l-0.76,0
				c-1.58-3.99-4.03-7.12-7.33-9.39s-7.39-3.42-12.27-3.42c-4.81,0-8.94,1.13-12.38,3.39c-3.45,2.26-5.93,5.4-7.45,9.42h-0.9V86.96
				h-13.62v72.88h14.19V114.9c0-3.29,0.69-6.18,2.06-8.68c1.37-2.5,3.19-4.45,5.46-5.86c2.26-1.41,4.74-2.11,7.43-2.11
				c3.95,0,7.16,1.2,9.63,3.61c2.47,2.4,3.7,5.58,3.7,9.54l0,48.45h14.14v-46.45c0-4.43,1.28-8.06,3.84-10.89
				c2.56-2.83,6.15-4.25,10.77-4.25c3.73,0,6.94,1.11,9.63,3.32c2.69,2.21,4.03,5.79,4.03,10.72l0,47.54l14.19,0l0-48.87
				c0-8.35-2.1-14.6-6.29-18.74C354.66,88.08,349.26,86.01,342.65,86.01z"/>
			<path class="st0" d="M426.02,90.71c-5.09-3.13-11.06-4.7-17.89-4.7c-6.83,0-12.8,1.57-17.89,4.7
				c-5.09,3.13-9.05,7.53-11.86,13.19s-4.22,12.27-4.22,19.83c0,7.53,1.41,14.11,4.22,19.74c2.82,5.63,6.77,10.01,11.86,13.14
				c5.09,3.13,11.06,4.7,17.89,4.7c6.83,0,12.79-1.57,17.89-4.7c5.09-3.13,9.05-7.51,11.86-13.14c2.81-5.63,4.22-12.21,4.22-19.74
				c0-7.56-1.41-14.17-4.22-19.83C435.07,98.24,431.12,93.84,426.02,90.71z M425.67,136.54c-1.41,3.89-3.57,7.01-6.48,9.35
				c-2.91,2.34-6.58,3.51-11.01,3.51c-4.46,0-8.15-1.17-11.08-3.51s-5.09-5.46-6.5-9.35c-1.41-3.89-2.11-8.18-2.11-12.86
				c0-4.65,0.7-8.93,2.11-12.83c1.41-3.91,3.57-7.05,6.5-9.42c2.93-2.37,6.62-3.56,11.08-3.56c4.43,0,8.1,1.19,11.01,3.56
				c2.91,2.37,5.07,5.51,6.48,9.42c1.41,3.91,2.11,8.18,2.11,12.83C427.78,128.36,427.08,132.65,425.67,136.54z"/>
			<path class="st0" d="M482.02,147.93c-0.85,0.16-1.85,0.24-2.99,0.24c-1.55,0-2.98-0.24-4.29-0.73c-1.31-0.49-2.38-1.42-3.2-2.8
				c-0.82-1.37-1.23-3.44-1.23-6.19V98.35h14.95V86.96l-14.95,0V69.5h-14.19v17.46l-10.68,0v11.39l10.68,0l0,43.04
				c0,4.4,1,8.05,2.99,10.96c1.99,2.91,4.6,5.06,7.83,6.45c3.23,1.39,6.71,2.05,10.44,1.99c2.28-0.03,4.18-0.21,5.69-0.55
				s2.69-0.66,3.51-0.97l-2.56-11.72C483.54,147.65,482.88,147.77,482.02,147.93z"/>
			<path class="st0" d="M525.02,147.93c-0.85,0.16-1.85,0.24-2.99,0.24c-1.55,0-2.98-0.24-4.29-0.73c-1.31-0.49-2.38-1.42-3.2-2.8
				c-0.82-1.37-1.23-3.44-1.23-6.19V98.35l14.95,0V86.96l-14.95,0V69.5l-14.19,0v17.46l-10.68,0v11.39l10.68,0v43.04
				c0,4.4,1,8.05,2.99,10.96c1.99,2.91,4.6,5.06,7.83,6.45c3.23,1.39,6.71,2.05,10.44,1.99c2.28-0.03,4.18-0.21,5.69-0.55
				c1.52-0.33,2.69-0.66,3.51-0.97l-2.56-11.72C526.54,147.65,525.87,147.77,525.02,147.93z"/>
			<path class="st0" d="M584.6,90.75c-2.86-1.8-5.93-3.04-9.2-3.72c-3.27-0.68-6.37-1.02-9.28-1.02c-4.4,0-8.59,0.62-12.58,1.87
				s-7.5,3.24-10.56,5.98c-3.05,2.74-5.37,6.32-6.95,10.75l13.33,3.04c1.04-2.56,2.93-4.89,5.67-7c2.74-2.1,6.49-3.15,11.27-3.15
				c4.59,0,8.04,1.14,10.37,3.42c2.33,2.28,3.49,5.49,3.49,9.63v0.33c0,1.71-0.62,2.94-1.85,3.7c-1.23,0.76-3.21,1.3-5.93,1.64
				c-2.72,0.33-6.26,0.75-10.63,1.26c-3.45,0.41-6.83,1.01-10.15,1.8c-3.32,0.79-6.33,1.96-9.02,3.51
				c-2.69,1.55-4.82,3.65-6.41,6.31c-1.58,2.66-2.37,6.04-2.37,10.15c0,4.78,1.08,8.81,3.25,12.1c2.17,3.29,5.12,5.8,8.85,7.52
				c3.73,1.72,7.91,2.59,12.53,2.59c4.02,0,7.46-0.58,10.34-1.75c2.88-1.17,5.24-2.64,7.07-4.41c1.83-1.77,3.21-3.57,4.13-5.41h0.57
				v9.96l13.86,0l0-48.4c0-5.32-0.92-9.64-2.75-12.98C589.81,95.13,587.46,92.56,584.6,90.75z M580.21,133.55
				c0,2.88-0.73,5.58-2.21,8.09c-1.47,2.52-3.61,4.55-6.41,6.1c-2.8,1.55-6.16,2.32-10.08,2.32c-4.02,0-7.32-0.89-9.92-2.68
				c-2.59-1.79-3.89-4.44-3.89-7.95c0-2.53,0.67-4.56,2.02-6.1c1.34-1.53,3.15-2.71,5.41-3.53c2.26-0.82,4.77-1.41,7.52-1.76
				c1.17-0.16,2.62-0.35,4.37-0.59c1.74-0.24,3.53-0.5,5.36-0.81c1.83-0.3,3.47-0.66,4.91-1.09c1.44-0.43,2.41-0.89,2.92-1.4V133.55
				z"/>
			<path class="st0" d="M656.14,98.77h-1.04c-0.85-1.52-2.06-3.27-3.63-5.27c-1.57-1.99-3.74-3.74-6.53-5.24
				c-2.78-1.5-6.44-2.25-10.96-2.25c-5.85,0-11.09,1.48-15.7,4.44c-4.62,2.96-8.25,7.2-10.89,12.74
				c-2.64,5.54-3.96,12.18-3.96,19.93s1.34,14.27,4.01,19.57c2.67,5.3,6.31,9.3,10.91,12c4.6,2.7,9.78,4.06,15.54,4.06
				c4.46,0,8.08-0.69,10.87-2.09c2.78-1.39,4.97-3.04,6.57-4.93c1.6-1.9,2.82-3.62,3.68-5.17h0.9v14.33c0,5.63-1.75,9.74-5.27,12.34
				c-3.51,2.59-7.95,3.89-13.33,3.89c-3.92,0-7.13-0.55-9.61-1.66c-2.48-1.11-4.44-2.44-5.88-3.99c-1.44-1.55-2.59-2.99-3.44-4.32
				l-12.2,5.03c1.3,2.91,3.26,5.61,5.88,8.09c2.63,2.48,6.02,4.48,10.18,6c4.16,1.52,9.13,2.28,14.92,2.28
				c6.2,0,11.78-0.96,16.73-2.89s8.88-4.9,11.79-8.9c2.91-4,4.37-9.1,4.37-15.3l0-74.49l-13.9,0V98.77z M653.84,135.85
				c-1.47,3.59-3.62,6.34-6.45,8.26c-2.83,1.91-6.29,2.87-10.37,2.87c-4.21,0-7.74-1.01-10.61-3.04c-2.86-2.02-5.02-4.84-6.48-8.45
				c-1.45-3.61-2.18-7.8-2.18-12.57c0-4.65,0.72-8.86,2.16-12.62c1.44-3.76,3.58-6.75,6.43-8.94c2.85-2.2,6.41-3.3,10.68-3.3
				c4.14,0,7.62,1.05,10.44,3.16c2.82,2.1,4.95,5.02,6.41,8.75c1.45,3.73,2.18,8.05,2.18,12.95
				C656.04,127.95,655.31,132.26,653.84,135.85z"/>
			<path class="st0" d="M731.45,89.12c-3.73-2.07-8.08-3.11-13.05-3.11c-5.47,0-10,1.17-13.59,3.51c-3.59,2.34-6.23,5.44-7.9,9.3
				H696V86.96l-13.62,0l0,72.88h14.19v-43.27c0-3.86,0.73-7.16,2.21-9.89c1.47-2.74,3.48-4.82,6.03-6.24
				c2.54-1.42,5.46-2.13,8.75-2.13c4.81,0,8.59,1.49,11.34,4.48c2.75,2.99,4.13,7.12,4.13,12.41v44.65h14.19l0-46.36
				c0-6.01-1.03-11.06-3.08-15.14C738.07,94.26,735.18,91.19,731.45,89.12z"/>
			<path class="st0" d="M762.68,58.77c-2.47,0-4.58,0.83-6.34,2.49c-1.76,1.66-2.63,3.66-2.63,6c0,2.31,0.88,4.29,2.63,5.96
				c1.76,1.66,3.87,2.49,6.34,2.49c2.47,0,4.58-0.83,6.33-2.49c1.76-1.66,2.63-3.65,2.63-5.96c0-2.34-0.88-4.34-2.63-6
				C767.26,59.6,765.14,58.77,762.68,58.77z"/>
			<rect x="755.51" y="86.96" class="st0" width="14.19" height="72.88"/>
			<path class="st0" d="M831.15,89.12c-3.73-2.07-8.08-3.11-13.05-3.11c-5.47,0-10,1.17-13.59,3.51c-3.59,2.34-6.23,5.44-7.9,9.3
				h-0.9V86.96h-13.62l0,72.88h14.19v-43.27c0-3.86,0.73-7.16,2.21-9.89s3.48-4.82,6.03-6.24c2.54-1.42,5.46-2.13,8.75-2.13
				c4.81,0,8.59,1.49,11.34,4.48c2.75,2.99,4.13,7.12,4.13,12.41v44.65h14.19v-46.36c0-6.01-1.03-11.06-3.08-15.14
				C837.78,94.26,834.89,91.19,831.15,89.12z"/>
			<path class="st0" d="M904.76,98.77h-1.04c-0.85-1.52-2.06-3.27-3.63-5.27c-1.57-1.99-3.74-3.74-6.53-5.24
				c-2.78-1.5-6.44-2.25-10.96-2.25c-5.85,0-11.09,1.48-15.7,4.44c-4.62,2.96-8.25,7.2-10.89,12.74
				c-2.64,5.54-3.96,12.18-3.96,19.93s1.34,14.27,4.01,19.57c2.67,5.3,6.31,9.3,10.91,12c4.6,2.7,9.78,4.06,15.54,4.06
				c4.46,0,8.08-0.69,10.87-2.09c2.78-1.39,4.97-3.04,6.57-4.93s2.82-3.62,3.68-5.17h0.9v14.33c0,5.63-1.75,9.74-5.27,12.34
				c-3.51,2.59-7.95,3.89-13.33,3.89c-3.92,0-7.13-0.55-9.61-1.66c-2.48-1.11-4.44-2.44-5.88-3.99c-1.44-1.55-2.59-2.99-3.44-4.32
				l-12.2,5.03c1.3,2.91,3.26,5.61,5.88,8.09c2.63,2.48,6.02,4.48,10.18,6c4.16,1.52,9.13,2.28,14.92,2.28
				c6.2,0,11.78-0.96,16.73-2.89c4.95-1.93,8.88-4.9,11.79-8.9c2.91-4,4.37-9.1,4.37-15.3l0-74.49l-13.9,0V98.77z M902.45,135.85
				c-1.47,3.59-3.62,6.34-6.45,8.26c-2.83,1.91-6.29,2.87-10.37,2.87c-4.21,0-7.74-1.01-10.61-3.04c-2.86-2.02-5.02-4.84-6.48-8.45
				c-1.45-3.61-2.18-7.8-2.18-12.57c0-4.65,0.72-8.86,2.16-12.62c1.44-3.76,3.58-6.75,6.43-8.94c2.85-2.2,6.41-3.3,10.68-3.3
				c4.14,0,7.62,1.05,10.44,3.16c2.82,2.1,4.95,5.02,6.41,8.75c1.45,3.73,2.18,8.05,2.18,12.95
				C904.66,127.95,903.92,132.26,902.45,135.85z"/>
			<path class="st0" d="M983.77,94.45c-3.07-2.91-6.53-5.05-10.39-6.41c-3.86-1.36-7.85-2.04-11.96-2.04
				c-6.77,0-12.68,1.6-17.72,4.79c-5.05,3.2-8.97,7.64-11.77,13.33c-2.8,5.69-4.2,12.27-4.2,19.74c0,7.56,1.4,14.15,4.2,19.76
				c2.8,5.62,6.79,9.96,11.96,13.05s11.35,4.63,18.53,4.63c5.31,0,10.05-0.81,14.21-2.44c4.16-1.63,7.62-3.92,10.39-6.88
				c2.77-2.96,4.69-6.41,5.76-10.37l-13.43-2.42c-0.85,2.28-2.09,4.19-3.7,5.74c-1.61,1.55-3.53,2.71-5.74,3.49
				c-2.21,0.77-4.67,1.16-7.35,1.16c-4.14,0-7.77-0.89-10.87-2.68c-3.1-1.79-5.51-4.39-7.23-7.8c-1.6-3.17-2.43-7-2.54-11.44
				l51.77,0v-5.03c0-6.61-0.88-12.23-2.66-16.87C989.25,101.14,986.83,97.37,983.77,94.45z M941.94,117.04
				c0.17-3.13,0.92-6.07,2.32-8.8c1.6-3.11,3.87-5.65,6.83-7.59c2.96-1.94,6.43-2.92,10.42-2.92c3.67,0,6.87,0.84,9.61,2.51
				c2.74,1.68,4.86,3.96,6.38,6.86c1.52,2.89,2.28,6.21,2.28,9.94L941.94,117.04z"/>
			<path class="st0" d="M1060.55,98.35c-2.06-4.08-4.95-7.16-8.68-9.23c-3.73-2.07-8.08-3.11-13.05-3.11c-5.47,0-10,1.17-13.59,3.51
				c-3.59,2.34-6.23,5.44-7.9,9.3h-0.9V86.96l-13.62,0v72.88l14.19,0l0-43.27c0-3.86,0.73-7.16,2.21-9.89s3.48-4.82,6.03-6.24
				c2.54-1.42,5.46-2.13,8.75-2.13c4.81,0,8.59,1.49,11.34,4.48c2.75,2.99,4.13,7.12,4.13,12.41v44.65l14.19,0l0-46.36
				C1063.63,107.47,1062.6,102.43,1060.55,98.35z"/>
		</g>
	</g>
	<g>
		<g>
			<path class="st0" d="M851.38,243.15l-19.63,0v-0.39l21.56-28.13c0.61-0.8,0.94-1.78,0.94-2.79c0-2.53-2.05-4.58-4.58-4.58h-18.42
				l-9.6,0c-0.31,0-0.56,0.25-0.56,0.56v6.2c0,0.31,0.25,0.56,0.56,0.56h9.6l12.5,0v0.39l-22.49,28.57
				c-0.59,0.76-0.92,1.69-0.92,2.65c0,2.37,1.92,4.28,4.28,4.28l26.74,0c2.02,0,3.66-1.64,3.66-3.66S853.4,243.15,851.38,243.15z"/>
			<path class="st0" d="M887.21,209.06c-1.7-1.07-3.52-1.8-5.46-2.21c-1.94-0.4-3.77-0.6-5.5-0.6c-2.61,0-5.09,0.37-7.45,1.11
				c-2.36,0.74-4.45,1.92-6.26,3.54c-1.7,1.53-3.02,3.5-3.95,5.92c-0.09,0.24,0.05,0.5,0.3,0.56l7.1,1.62
				c0.19,0.04,0.39-0.06,0.47-0.24c0.64-1.4,1.72-2.67,3.23-3.84c1.62-1.25,3.85-1.87,6.68-1.87c2.72,0,4.77,0.68,6.15,2.03
				c1.38,1.35,2.07,3.25,2.07,5.71v0.2c0,1.01-0.37,1.74-1.1,2.19c-0.73,0.45-1.9,0.77-3.52,0.97c-1.61,0.2-3.71,0.45-6.3,0.75
				c-2.04,0.24-4.05,0.6-6.02,1.07c-1.97,0.47-3.75,1.16-5.34,2.08c-1.59,0.92-2.86,2.17-3.8,3.74c-0.94,1.58-1.41,3.58-1.41,6.02
				c0,2.83,0.64,5.22,1.93,7.17c1.28,1.95,3.03,3.44,5.25,4.46c2.21,1.02,4.69,1.53,7.43,1.53c2.38,0,4.43-0.35,6.13-1.04
				c1.71-0.69,3.1-1.57,4.19-2.62c1.09-1.05,1.9-2.12,2.45-3.21h0.34v1.8c0,2.27,1.84,4.11,4.11,4.11l0,0
				c2.27,0,4.11-1.84,4.11-4.11v-24.58c0-3.15-0.54-5.71-1.63-7.69C890.3,211.65,888.91,210.12,887.21,209.06z M884.61,234.43
				c0,1.71-0.44,3.31-1.31,4.8c-0.87,1.49-2.14,2.7-3.8,3.61c-1.66,0.92-3.65,1.38-5.98,1.38c-2.38,0-4.34-0.53-5.88-1.59
				c-1.54-1.06-2.31-2.63-2.31-4.71c0-1.5,0.4-2.7,1.2-3.61c0.8-0.91,1.87-1.61,3.21-2.1c1.34-0.49,2.83-0.83,4.46-1.04
				c0.69-0.09,1.56-0.21,2.59-0.35c1.03-0.14,2.09-0.3,3.18-0.48c1.09-0.18,2.06-0.39,2.91-0.65c0.85-0.25,1.43-0.53,1.73-0.83
				V234.43z"/>
			<path class="st0" d="M943.81,206.24c-3.11,0-5.79,0.69-8.04,2.07c-2.25,1.38-3.89,3.22-4.92,5.53h-0.45
				c-0.94-2.36-2.39-4.22-4.35-5.57c-1.96-1.35-4.38-2.03-7.27-2.03c-2.85,0-5.3,0.67-7.34,2.01c-2.04,1.34-3.52,3.2-4.42,5.58
				h-0.53v-6.34c0-0.38-0.31-0.7-0.7-0.7h-6.68c-0.38,0-0.7,0.31-0.7,0.7v38.3c0,2.32,1.88,4.21,4.21,4.21l0,0
				c2.32,0,4.21-1.88,4.21-4.21v-22.43c0-1.95,0.41-3.67,1.22-5.15c0.82-1.48,1.89-2.64,3.23-3.47c1.34-0.83,2.81-1.25,4.4-1.25
				c2.34,0,4.25,0.71,5.71,2.14c1.46,1.43,2.19,3.31,2.19,5.65v24.53c0,2.31,1.88,4.19,4.19,4.19l0,0c2.31,0,4.19-1.88,4.19-4.19
				v-23.35c0-2.63,0.76-4.78,2.28-6.46c1.52-1.68,3.65-2.52,6.39-2.52c2.21,0,4.12,0.66,5.71,1.97c1.59,1.31,2.39,3.43,2.39,6.36
				v23.98c0,2.32,1.88,4.21,4.21,4.21l0,0c2.32,0,4.21-1.88,4.21-4.21v-24.77c0-4.95-1.24-8.65-3.73-11.11
				C950.93,207.47,947.73,206.24,943.81,206.24z"/>
			<path class="st0" d="M993.24,208.89c-2.74-1.76-5.85-2.64-9.34-2.64c-2.68,0-4.84,0.45-6.47,1.34c-1.63,0.89-2.91,1.93-3.83,3.11
				c-0.92,1.18-1.62,2.22-2.11,3.12h-0.7v-6.45c0-0.31-0.25-0.55-0.55-0.55h-7.11c-0.31,0-0.55,0.25-0.55,0.55v54.65
				c0,2.32,1.88,4.21,4.21,4.21l0,0c2.32,0,4.21-1.88,4.21-4.21v-18.72h0.51c0.51,0.92,1.23,1.97,2.17,3.15
				c0.94,1.18,2.24,2.21,3.9,3.09c1.66,0.88,3.8,1.32,6.43,1.32c3.49,0,6.59-0.9,9.31-2.69c2.72-1.79,4.86-4.35,6.41-7.68
				c1.56-3.33,2.33-7.33,2.33-12c0-4.67-0.78-8.66-2.35-11.98C998.13,213.19,995.98,210.65,993.24,208.89z M992.24,236.2
				c-0.87,2.31-2.15,4.13-3.84,5.47c-1.69,1.34-3.79,2.01-6.3,2.01c-2.42,0-4.46-0.64-6.13-1.93c-1.67-1.28-2.94-3.07-3.83-5.36
				c-0.88-2.29-1.32-4.95-1.32-7.99c0-3,0.43-5.63,1.29-7.88c0.86-2.25,2.13-4,3.81-5.26c1.68-1.26,3.74-1.88,6.17-1.88
				c2.53,0,4.65,0.66,6.34,1.97c1.7,1.31,2.97,3.1,3.83,5.37c0.85,2.27,1.28,4.83,1.28,7.68
				C993.55,231.3,993.12,233.89,992.24,236.2z"/>
			<path class="st0" d="M1009.87,250.01L1009.87,250.01c2.32,0,4.21-1.88,4.21-4.21V192.9c0-0.27-0.22-0.5-0.5-0.5h-7.42
				c-0.27,0-0.5,0.22-0.5,0.5v52.91C1005.66,248.13,1007.54,250.01,1009.87,250.01z"/>
			<polygon class="st0" points="1049.7,193.76 1051.91,193.76 1051.91,199.73 1053.43,199.73 1053.43,193.76 1055.63,193.76 
				1055.63,192.4 1049.7,192.4 			"/>
			<polygon class="st0" points="1061.54,192.4 1060.41,196.71 1060.08,198.17 1059.79,196.71 1058.64,192.4 1056.5,192.4 
				1056.5,199.73 1057.91,199.73 1057.91,196.99 1057.74,193.39 1058.24,195.54 1059.33,199.73 1060.89,199.73 1061.96,195.62 
				1062.46,193.4 1062.29,196.99 1062.29,199.73 1063.71,199.73 1063.71,192.4 			"/>
			<path class="st0" d="M1028,230.94l28.73,0v-2.98c0-3.92-0.53-7.25-1.58-10c-1.05-2.75-2.48-4.98-4.3-6.71
				c-1.82-1.73-3.87-2.99-6.16-3.8c-2.29-0.81-4.65-1.21-7.09-1.21c-4.01,0-7.52,0.95-10.51,2.84c-2.99,1.89-5.32,4.53-6.98,7.9
				c-1.66,3.38-2.49,7.28-2.49,11.7c0,4.48,0.83,8.39,2.49,11.72c1.66,3.33,4.02,5.91,7.09,7.74c3.07,1.83,6.73,2.74,10.98,2.74
				c3.15,0,5.96-0.48,8.42-1.45c2.47-0.97,4.52-2.33,6.16-4.08c0.25-0.27,0.49-0.54,0.71-0.82c1.85-2.28,0.54-5.72-2.35-6.24
				c-1.52-0.27-3.11,0.31-3.99,1.58c-0.33,0.47-0.7,0.91-1.11,1.3c-0.96,0.92-2.09,1.61-3.4,2.07c-1.31,0.46-2.77,0.69-4.36,0.69
				c-2.46,0-4.6-0.53-6.44-1.59c-1.84-1.06-3.27-2.6-4.29-4.63c-0.95-1.88-1.45-4.15-1.52-6.78h0.58H1028z M1027.43,219.42
				c0.95-1.85,2.3-3.35,4.05-4.5c1.75-1.15,3.81-1.73,6.17-1.73c2.18,0,4.07,0.5,5.7,1.49c1.62,0.99,2.88,2.35,3.78,4.06
				c0.9,1.72,1.35,3.68,1.35,5.89l-20.48,0h-1.97C1026.13,222.78,1026.6,221.04,1027.43,219.42z"/>
		</g>
		<g>
			<path class="st0" d="M753.71,241.87v-32.23h5.7v12.06h0.24c0.29-0.59,0.71-1.21,1.24-1.88c0.54-0.67,1.26-1.24,2.17-1.72
				c0.91-0.48,2.08-0.72,3.49-0.72c1.87,0,3.55,0.47,5.06,1.42c1.51,0.95,2.7,2.35,3.59,4.2c0.89,1.85,1.33,4.12,1.33,6.81
				c0,2.66-0.44,4.91-1.31,6.77c-0.87,1.86-2.06,3.27-3.56,4.25c-1.5,0.98-3.2,1.46-5.1,1.46c-1.39,0-2.53-0.23-3.45-0.69
				c-0.91-0.46-1.64-1.02-2.2-1.68c-0.55-0.66-0.98-1.28-1.28-1.87h-0.33v3.81H753.71z M759.3,229.78c0,1.56,0.22,2.93,0.67,4.11
				c0.45,1.18,1.09,2.09,1.94,2.75c0.84,0.66,1.87,0.98,3.08,0.98c1.26,0,2.31-0.34,3.16-1.02c0.85-0.68,1.49-1.61,1.93-2.79
				c0.44-1.18,0.65-2.53,0.65-4.04c0-1.5-0.21-2.83-0.64-4c-0.43-1.16-1.07-2.08-1.92-2.74c-0.85-0.66-1.91-0.99-3.18-0.99
				c-1.22,0-2.25,0.32-3.1,0.96c-0.85,0.64-1.49,1.54-1.93,2.69C759.52,226.86,759.3,228.22,759.3,229.78z"/>
			<path class="st0" d="M780.78,250.89c-0.78,0-1.49-0.06-2.15-0.18c-0.66-0.12-1.18-0.27-1.57-0.43l1.32-4.42
				c1.24,0.36,2.28,0.42,3.12,0.18c0.84-0.24,1.54-1.02,2.09-2.35l0.49-1.31l-8.77-24.68h6.04l5.57,18.26h0.25l5.59-18.26l6.09,0.03
				l-9.71,27.07c-0.45,1.26-1.05,2.35-1.79,3.26s-1.66,1.61-2.73,2.1C783.55,250.64,782.27,250.89,780.78,250.89z"/>
		</g>
	</g>
</g>
</svg>
